<svg width="21" height="22" viewBox="0 0 21 22" fill="none" xmlns="http://www.w3.org/2000/svg">
<path id="Vector" d="M6.19366 5.70939C6.19366 3.32332 8.12795 1.38902 10.514 1.38902C11.663 1.38415 12.7666 1.83718 13.5808 2.64794C14.395 3.45869 14.8527 4.56038 14.8527 5.70939M7.54835 10.2128H7.59412M13.379 10.2128H13.4248M6.33096 20.611H14.6788C17.7451 20.611 20.0975 19.5034 19.4294 15.0458L18.6513 9.00457C18.2394 6.78031 16.8207 5.92905 15.5758 5.92905H5.39732C4.13416 5.92905 2.79778 6.84439 2.3218 9.00457L1.54377 15.0458C0.976267 19 3.2646 20.611 6.33096 20.611Z" stroke="#8F959E" stroke-width="1.5" stroke-linecap="round" stroke-linejoin="round"/>
</svg>
